<?xml version="1.0" standalone="no"?>
<!DOCTYPE svg PUBLIC "-//W3C//DTD SVG 20010904//EN"
 "http://www.w3.org/TR/2001/REC-SVG-20010904/DTD/svg10.dtd">
<svg version="1.0" xmlns="http://www.w3.org/2000/svg"
 width="521.000000pt" height="437.000000pt" viewBox="0 0 521.000000 437.000000"
 preserveAspectRatio="xMidYMid meet">

<g transform="translate(0.000000,437.000000) scale(0.100000,-0.100000)"
fill="#000000" stroke="none">
<path d="M2540 3541 c-486 -103 -1143 -240 -1370 -286 -149 -30 -246 -101
-303 -223 -27 -59 -31 -79 -35 -177 -7 -188 34 -319 129 -420 l53 -56 -25 -16
c-47 -32 -92 -89 -122 -152 -27 -57 -31 -78 -35 -171 -8 -192 34 -327 131
-427 l50 -52 -52 -47 c-94 -85 -131 -176 -131 -327 0 -104 22 -222 55 -292 28
-57 111 -146 170 -180 22 -12 275 -127 563 -255 l523 -233 962 207 c1339 287
1329 285 1360 297 33 14 57 56 57 100 0 41 -56 99 -95 99 -16 0 -343 -68 -729
-151 -386 -83 -888 -190 -1116 -239 l-414 -89 -506 225 c-556 248 -567 254
-596 349 -21 71 -29 192 -15 242 23 85 83 128 198 142 l68 8 390 -175 c214
-96 403 -178 419 -183 22 -6 284 47 1170 237 627 134 1149 247 1158 250 29 9
68 64 68 94 0 61 -47 110 -104 110 -15 0 -235 -45 -489 -100 -254 -54 -725
-156 -1047 -225 -322 -69 -614 -132 -649 -139 l-64 -15 -506 225 c-557 248
-569 255 -597 349 -8 27 -17 84 -21 125 -13 168 48 242 219 265 44 6 65 -3
453 -176 253 -112 419 -181 439 -181 17 0 126 21 241 46 282 60 1810 389 1955
420 100 22 119 29 143 56 58 65 14 169 -73 170 -19 0 -392 -77 -830 -171 -437
-94 -937 -201 -1110 -238 l-315 -68 -500 222 c-441 196 -505 227 -546 266 -52
51 -67 96 -76 221 -11 157 65 246 215 250 28 1 137 -45 453 -190 229 -106 427
-192 440 -192 13 0 159 29 324 65 165 35 678 146 1140 245 462 99 850 187 863
196 69 46 42 171 -41 188 -35 8 -286 67 -786 186 -270 64 -482 110 -510 109
-25 0 -296 -54 -601 -118z"/>
</g>
</svg>
